<svg width="32" height="32" viewBox="0 0 32 32" fill="none" xmlns="http://www.w3.org/2000/svg">
<path fill-rule="evenodd" clip-rule="evenodd" d="M24 10H8C6.89543 10 6 10.8954 6 12V24C6 25.1046 6.89543 26 8 26H24C25.1046 26 26 25.1046 26 24V12C26 10.8954 25.1046 10 24 10ZM8 8C5.79086 8 4 9.79086 4 12V24C4 26.2091 5.79086 28 8 28H24C26.2091 28 28 26.2091 28 24V12C28 9.79086 26.2091 8 24 8H8Z" fill="white"/>
<mask id="path-2-inside-1_1_10" fill="white">
<path fill-rule="evenodd" clip-rule="evenodd" d="M23 10C23 6.13401 19.866 3 16 3C12.134 3 9 6.13401 9 10H23Z"/>
</mask>
<path d="M23 10V12H25V10H23ZM9 10H7V12H9V10ZM16 5C18.7614 5 21 7.23858 21 10H25C25 5.02944 20.9706 1 16 1V5ZM11 10C11 7.23858 13.2386 5 16 5V1C11.0294 1 7 5.02944 7 10H11ZM9 12H23V8H9V12Z" fill="white" mask="url(#path-2-inside-1_1_10)"/>
</svg>
