<svg width="32" height="32" viewBox="0 0 32 32" fill="none" xmlns="http://www.w3.org/2000/svg">
<path fill-rule="evenodd" clip-rule="evenodd" d="M21 14C21 17.3137 18.3137 20 15 20C11.6863 20 9 17.3137 9 14C9 10.6863 11.6863 8 15 8C18.3137 8 21 10.6863 21 14ZM19.5838 20.5574C18.2856 21.4666 16.7051 22 15 22C10.5817 22 7 18.4183 7 14C7 9.58172 10.5817 6 15 6C19.4183 6 23 9.58172 23 14C23 15.9998 22.2662 17.8282 21.0532 19.2307C21.0766 19.2502 21.0994 19.2709 21.1213 19.2929L25.7071 23.8787C26.0976 24.2692 26.0976 24.9024 25.7071 25.2929C25.3166 25.6834 24.6834 25.6834 24.2929 25.2929L19.7071 20.7071C19.6604 20.6604 19.6193 20.6102 19.5838 20.5574Z" fill="white"/>
</svg>
